<svg width="38" height="38" viewBox="0 0 38 38" fill="none" xmlns="http://www.w3.org/2000/svg">
<circle cx="19.25" cy="18.75" r="18.75" fill="#1849C6"/>
<path fill-rule="evenodd" clip-rule="evenodd" d="M27.0605 10H12.0379C11.2174 10 10.5 10.5908 10.5 11.4019V26.4574C10.5 27.2732 11.2174 28 12.0379 28H27.0558C27.8811 28 28.5 27.2686 28.5 26.4574V11.4019C28.5047 10.5908 27.8811 10 27.0605 10ZM16.0796 25.0039H13.5008V16.9862H16.0796V25.0039ZM14.8793 15.7671H14.8605C14.0353 15.7671 13.5008 15.1529 13.5008 14.384C13.5008 13.6009 14.0494 13.0008 14.8933 13.0008C15.7373 13.0008 16.2531 13.5962 16.2718 14.384C16.2718 15.1529 15.7373 15.7671 14.8793 15.7671ZM25.5039 25.0039H22.9251V20.62C22.9251 19.5697 22.55 18.8523 21.6169 18.8523C20.9043 18.8523 20.4823 19.3352 20.2947 19.8041C20.2244 19.9729 20.2056 20.2027 20.2056 20.4371V25.0039H17.6268V16.9862H20.2056V18.1021C20.5807 17.5676 21.1668 16.7986 22.5312 16.7986C24.2239 16.7986 25.5039 17.9146 25.5039 20.3199V25.0039Z" fill="white"/>
</svg>
