<svg width="38" height="38" viewBox="0 0 38 38" fill="none" xmlns="http://www.w3.org/2000/svg">
<circle cx="18.75" cy="18.75" r="18.75" fill="#1849C6"/>
<path fill-rule="evenodd" clip-rule="evenodd" d="M29 12.8958C28.2626 13.2167 27.4743 13.4333 26.6436 13.5333C27.4912 13.0333 28.1439 12.2417 28.449 11.3C27.6565 11.7625 26.7792 12.1 25.8426 12.2792C25.0924 11.4917 24.0244 11 22.8462 11C20.5787 11 18.7436 12.8083 18.7436 15.0375C18.7436 15.3542 18.7775 15.6625 18.8495 15.9583C15.4378 15.7917 12.4117 14.1833 10.3901 11.7375C10.0384 12.3333 9.83492 13.0292 9.83492 13.7667C9.83492 15.1667 10.5639 16.4042 11.6658 17.1292C10.9877 17.1125 10.352 16.9292 9.80102 16.625C9.80102 16.6417 9.80102 16.6583 9.80102 16.675C9.80102 18.6333 11.2166 20.2625 13.0941 20.6333C12.7508 20.725 12.3863 20.775 12.0134 20.775C11.7506 20.775 11.4921 20.75 11.242 20.7C11.7633 22.3042 13.2806 23.4708 15.0776 23.5042C13.6747 24.5875 11.9032 25.2333 9.97902 25.2333C9.64844 25.2333 9.3221 25.2125 9 25.175C10.8097 26.3333 12.9669 27 15.281 27C22.8377 27 26.9657 20.8458 26.9657 15.5083C26.9657 15.3333 26.9614 15.1583 26.953 14.9875C27.754 14.4167 28.449 13.7083 29 12.8958Z" fill="white"/>
</svg>
